<svg xmlns="http://www.w3.org/2000/svg" xmlns:xlink="http://www.w3.org/1999/xlink" viewBox="0 0 1508 704">
  
  
  
  <g id="sole" class="cls-1">
    <path class="cls-2" d="M26,332c3.35-3.06,3.23-3.27,3,1-4,20.36.56,56.94,14.94,67.23C50.3,404.78,59,407.05,68,410c9.19,3,19.9,5.08,31.53,8.42C124.55,425.59,169.31,430,202,438c50,12.28,107.89,7.5,160,18,48.69,7.78,96.34,20.7,145,31,16.2,3.41,48.52,8.11,69,5.62,38.69-4.71,68.58-12.26,100.19-24.1,82.33-30.82,148.48-63.24,245.12-77.7,21.09-2.46,40.86-4.52,62.69-3.82,64-3.82,149.41,7.61,206-2.08,23.13-4,51.65-15.24,70-24.92,10.75-5.66,21.9-8.72,27.34-28.71,3.35-1.18,6.39,5.21,9.68,7.57,7.68,10.92,11.88,16.71,18,25.14,12.36,21.62,21.09,43.32,24,71,1.33,7,2.53,5.18,12,9,5,7,11.79,10.21,15,18,1.79,9.3-1.6,12.25-2,15,4.2,2.89,14.18,14.89,16,27,.72,6.33-1.09,12.68-1,17,7.15,5.47,18.63,23.61,14.43,41.08-6.76,28.13-39.91,52.54-62.48,66.58-12.16,7.57-55.22,26-74,23.34-5.41-2.75-8.61-8.84-11-11-17.57,1.75-20.74-.07-25.61,2-2.42,1-1.44,11-10.27,14.06-5.77,2-43.82,5.75-50.12,3.91-6.27-5.55-6.83-7.75-11-11-8.5-.19-32.19-.36-34.93,2.17-4.13,3.83-5,11.61-12.4,13.13-20.5,2.77-32.05,3.69-53.41.93C1043,663.48,1041,658,1037,654c-6.8,2.12-21.55-2.4-25,1-3.93,3.89-3.7,11.3-9.48,11.74-14.18,1.1-29.09,1.18-47.06-3.67-8.64-2.34-6.2-8.85-11.46-14.07-20-5-41.5-9-61-15-11.9-.2-23,1.79-35,0-54.08-11.86-105.53,8.52-153.41,11.78-7.58.52-22,5.71-29.59,7.22-9.13,1.81-6.34-3.6-9-4-5.31-.81-10.14,1.64-16,2-2.38,5.07-4.47,14.14-10,15-9.33,2-46.34,5.25-60,3-5.43-.89-5.57-8.15-9-11-3.81-3.17-18.76.93-30-1-3.31,4.79-5,9.06-10,14.28-10.43-2-29.33,1.57-33-1.33-5-4.07-5.64-8.76-9.06-14.73C475,655.65,463.34,654,459,653c-4.38,5.4-6.59,8.91-12.61,13.31-15.76-.11-41-1.81-51.39-8.31-2.4-4.49-.84-9.24-7.08-11.75-11.34-.26-23.1-6.53-27.92-3.25-2,1.35-5.34,9.66-11,9-28.12-4.32-58.69-13.87-83-23-11.77-4.42-9.15-8.94-12-16-1.77-4.38-14.25-8.55-22-10-3.5-.66-4.72,5.47-11,7-14.73-5.16-26.79-12.55-38-21-3.58-2.7-2.29-7.75-4-11-2.08-4-9.33-8.27-15-10-6.55-2-7.87,7.19-18,3-8.39-3.46-27-15.14-31-23-1.78-3.55.56-6.25,0-9-.74-3.59-8.4-10-12-13-5.41-4.5-11.55,3.45-17-1-7.33-7.67-17.67-17.33-25-25-7.09-14.54-2.45-12.82-1-18,1-3.73-1.12-7.17-3-10-4.48-6.75-9.86-2.2-12-4-7.57-6.36-10.38-11.46-15.22-24.07C18.6,414.83-.86,357.88,26,332Z"/>
  </g>
  <g id="fabric-left" class="cls-3">
    <path class="cls-2" d="M334,253c3.5,16,6.1,20.38,13,29,3.26,4.75,4.06,7.34,24,8a10.09,10.09,0,0,1-2.88,2.83c-6.09,7.4-11.58,18-21.08,26.53-14.12,12.62-29.39,24-35,30.64-4.2,4.95-15.88,3.1-21,6-13.3,7.54-34.61,7.94-43,6-23.47-5.44-44.49-42.7-60.18-44.27-9.34-.93-33.95-1.66-36.82-1.73-22.71-.52-39.42-11.71-53-20.5.55-9.67,12.11-15.7,25-20.24,3.32-.13,10-1.84,18,.74,16.72,5.41,42.87-3.31,61-4C243,273.72,323.57,257.7,334,253Z"/>
  </g>
  <g id="fabric-middle" class="cls-3">
    <path class="cls-2" d="M681.64,196.58c17.21,8.9,38.62,19.17,65.21,25.62,28.48,6.9,54.75,13.48,70.52,16.44,28.69,5.38,70.29,7.08,85.4,29.31,3.47,25.91-8.77,28.74-22.89,36.65C860.61,315.42,837.13,325.18,822,332c-6.86,3.09-15,7.76-16.24,6.61-5.68-5.14-15.08-9-19.76-11.61-24.5-13.48-59.36-31.17-98.51-25.29-16.9.63-34.17,7.35-51.49,12.29-2.33,2.67-8.67,3.33-10.87,6.39C609.4,322.45,568.77,353.73,575,347c-10,6.94-30.4,19.61-44,21-22.47-11.72-48-22.71-64.1-45.95-10.24-14.79-9.38-40.2,3.05-55.09,1.11-1.34-.14-5.81,1.05-7,2.74-2.64,7.38-3.11,11-6,5.25-.37,11.57-4.87,16-5,9.33-4.33,18.67-7.67,26.64-12.2,13.59-6.93,33.46-9.28,55.36-9.8,7.68.6,17.67-1.33,25-1,23.27-1.3,40.12-9.64,58-18C668.74,205.32,677.69,199.07,681.64,196.58Z"/>
  </g>
  <g id="fabric-right" class="cls-4">
    <path class="cls-2" d="M1210,195c10.52,2.66,31.77,32.68,33,44,.74,6.79,6.62,20.64,2,36-6.31,11-15.58,16.72-25,21-16.37,10-35.38,11.95-54,20-40.58,17.54-83.75,26.59-120,46-7.82,4.19-16.89,9.05-24,13-5.49,4.32-11.4,6.84-16,12-87,1.24-71.37,4.05-68-3,16.56-18.82,34.56-37.74,53.2-52.33,16-12.49,34.92-27.73,52.6-38.22,2.54-2.14,11.29-9.39,14.2-11.45,7.33-7,12.8-9.17,22-15,6.57-2.93,12.67-8,19-10,21.19-11.8,44.77-22.55,65-35,4.67-1,8.33-5,13-6,4-3.67,9-5.33,13-9C1198.17,204.31,1202.6,200.65,1210,195Z"/>
  </g>
  <g id="top" class="cls-5">
    <path class="cls-2" d="M1224,66c1.7,3.69,2.57,6.38,1.79,9.81C1183.17,76.88,1164.06,78,1151,90c-16.38,15-22.94,42.21-36,61-24.62,35.43-41,37.24-71,47-12,3.9-36.77,7.9-51.73,6.9-10-.46-20.95-2.57-32.27-3.9-64-18.56-107.64-50.76-153-87-10-8-20.23-17.49-30-27-6.88-6.7-12.11-13.35-19-17s-16.48-2.85-27.38.66C730.67,70,719.33,78,719,77c0-1.19-5.81-2.75-5-4,3.94-6.09,21.3-12.83,39-11,11.3,1.17,40.67,20.29,69.35,43.65C840.44,120.37,856.12,130.76,861,135c1.38-1.17,1,0,2-1-.38-7.48-2.92-27.35-2.78-34.12-21.58-11.33,98.36,67.35,183.77,44.66,29.14-7.74,43.52-39.94,66-57.54C1149.63,56,1181.36,39.12,1224,66Z"/>
    <path class="cls-2" d="M701,90s-4.42-4.8-6-5-47.24,30.57-50,30,10.19,2.08,10,3S682.32,105.09,701,90Z"/>
    <path class="cls-2" d="M762,31s-26.26-2.26-40,5-16.1,28.88-18,30S762,31,762,31Z"/>
  </g>
  <g id="tongue" class="cls-4">
    <path class="cls-2" d="M826.78,6.36C838.05,11.3,840,22,842,24a89.93,89.93,0,0,1,14,40c.56,6.58-5.31,9-5,17,2.21,3.33,6.33,15.67,9,19l3,33c0,2.89.67,4.33-.17,4C831.59,112.58,802.67,89.83,771,69.44c-25-16.1-55.48-2.47-57,4.56-.34,1.55,2.11,2.21-10.76-7,17.76-13.27,46-30,72.76-43C792.18,16.18,812.29,6.46,826.78,6.36Z"/>
    <path class="cls-2" d="M681,83c9.22-3.58,10.72-5,14,2-.67,1-15.24,7.5-17.34,11.81-16.82,7.6-17,13.31-31.66,17.19-9.55-1.86-9.33-1-19-3,0-1.33,2-2.67.7-4.65,6.26-5.67,18.83-8.67,27.27-12.47C663.92,89.86,672.17,83.36,681,83Z"/>
    <path class="cls-2" d="M592,127s-30.66,14.31-31,16-3.84,10.91,3,10,31.23-23,38-24S592,127,592,127Z"/>
    <path class="cls-2" d="M543,164s-21,4.77-29.78,4.81c-7.07,0-40.39,14.67-43.22,18.19s14.45,9.64,14.45,9.64C484.65,196.92,543.48,167.26,543,164Z"/>
    <path class="cls-2" d="M441,202l-13,6s-1.28,15.88,0,20C428.86,230.76,441.9,207.52,441,202Z"/>
    <path class="cls-2" d="M455,201l-10,17s22.54-10.05,24-10S457.78,201,455,201Z"/>
  </g>
  <g id="front" class="cls-6">
    <path class="cls-2" d="M623,135c5.77,24.74,38.12,50.51,61,60l-2,1c-18.3,13.73-40.54,22-63,29-11,0-21,2-32.06,1.89-22-1-40,2.73-56.94,8.11-4,3.33-12,3.67-16,7-4.93,2.28-54.73,21.27-63,25.52A42.14,42.14,0,0,1,440,272c-12,2.68-67.06,20.58-80,18-11.72,1.8-26.25-24.28-26-39,3.4-6.88,14.85-14.66,22-17,5.33,0,8.67-5,14-5,14.1-5.55,28.24-13.95,41-21-8.51,16.3-13,35.85,6,46,7.07-1.14,10.07-3.79,13-9-2.81-8.72-5.57-7.7-2-16.95,8.38-3.47,28.33-17.86,43-20.05,7.86-1.17,15.83,9.26,25.77,13.78,13.5,1.68,16.91-3.27,14.23-13.78-5.5-2.67-23.69-7.56-25-11,3.42-5.8,37.72-18.56,49-29,5.18.66,5.94-7.58,15-2l35,22c4-1.66,5.94-2.31,8-6,3.54-2.46,3.75-5.19,3-8-14.25-10.63-9.92-15.88-31-21,4.71-7.13,24.19-14.21,33-22C602.16,130,603.87,119.84,623,135Z"/>
  </g>
  <g id="toe" class="cls-7">
    <path class="cls-2" d="M123,269c6,.16,10.33,2,16,3,1.26,1.41,2.51,3,2,4h-1c-15-5.5-37.06,5.75-42,17,.33,1.67,1.67,2.33,2,4,21.76,13.13,39.35,21.33,67.91,18.44,10.09.57,20,1.79,28.42,5.34,17.89,11.7,32,38.57,55.71,41.1C272,364,280,359,290,356.05c14.56-4.27,66.1-15.62,83.18-11.53,69,16.53,112,66.53,153.8,102.48,16.8,14.46,38.16,32.54,53,44-.67,1-3.33,1-4.21,1.8-44.08,3-88.07-9.89-121.79-17.8-33-7.51-61.34-13-92-19-35.6-4.61-72-7.77-106-9-41.18-5.45-80-13.69-112.39-19.62-27.18-5-60.41-11.77-80.91-19C55,405,49.22,403.94,41,398c-10.79-12.48-19.64-56.27-9-72,7.82-5.31,16.45-13.63,26-17,15.45-11.66,31.05-25.25,48-36C111.75,270.74,117.17,269,123,269Z"/>
  </g>
  <g id="side-left" class="cls-3">
    <path class="cls-2" d="M467,260c5.46-1.76,4.88-.8,3.59,6.17C429,329.34,520.76,359.92,529.9,366.78c21.32,10.7,132.57-111.14,240.11-48.23,9.6,5.62,15.18,6.95,30,14.45-1.75-.5,7.24,6,4.78,5.88-56.26,21-130.31,88.62-137.35,134C639.07,482.47,585.11,493.15,580,492c-60.69-46.53-108.17-105.3-179-139-9.76-3.16-19.91-6-29-7.95-20.21-3.92-49.95,4.63-60.31,5.23A43.23,43.23,0,0,0,315,345c15.44-9.74,20.74-16.77,33-27,9.86-8.22,18.48-27.37,26.05-28.73a311,311,0,0,0,31.8-7.6C430.67,274.64,449.37,270.6,467,260Z"/>
  </g>
  <g id="back" class="cls-8">
    <path class="cls-2" d="M1258,175c.71-.24.7-.09,1.64.25,5.14,36,10.21,67.59,19.22,106.58,3.07,13.26,10.8,44.43,6.94,56-5.8,17.28-36.54,27.82-53.8,35.2-44.87,19.18-92.23,16.56-151.64,15.15-22.36-.48-45.36-.82-68.3-1-.69-.19-7,.58-8.06-.1,1-.89,4.84-2.94,7.62-5.34,44.23-31.86,95.87-43.38,145.54-62.37,23.66-9.05,54.46-16.58,74.76-30.6,30.71-21.2,7-75.29-16.92-89.69-2.08-1-5.67-3.33-5-5C1228,191.59,1249.77,187.23,1258,175Z"/>
  </g>
  <g id="side-right" class="cls-9">
    <path class="cls-2" d="M757.86,69.46c19.55,14.88,30.34,28.8,46,40.77,52.38,39.94,92.56,73.81,157.26,89.6,49.06,12,117.82-4.07,138.83-31.83,14,16.55,34.51,21,55,24,18.38,2.69,45.13,2.13,55,2-6,10.56-84.92,49-102,58-2.67,3-10.33,5-13,8-6.67,2-8.33,5-15,7-16.82,9.4-32,24.2-47.27,34.46-29.94,20.08-77.1,58.87-98.37,88.75C904.1,391.26,873.11,400.68,848,407c-18.33,4.67-34.67,11.33-53,16-41.68,16.67-84.72,32.7-129,50-.66-2.08,1-2.05,1.53-6.46,22-51.73,69.57-90.53,113.31-116.7C791.09,345.19,791.42,344,796,343c20.7-10,87.15-38,101-50,6-5.24,6.35-13.1,6-22-10.18-22-56.06-27.43-85.8-31-10.58-2.94-17.87-6-27.28-7.57C732.3,221.05,691.57,208.62,653,176c-10.47-8.86-25.61-17.92-29-35-.63-1.33-4-5-3-5,22.86-7.47,30.61,15.09,55,11,3-.87,4-3.41,5-8-.33-1,.33-2,0-3-5.3-7.56-17.65-11.75-25-17,.67-1,5.33-3,6-4.09,16-6.87,24.93-16.21,39-23.91,10.63,9.75,25.3,18,39,25,5.58-.93,9.17-2.54,11-6,.33-3.33-.33-5.67,0-9-9.6-3.44-20.9-18.17-31-23,.33-2.33,2.67-1.67,3-4C726.31,70.68,744.75,64.35,757.86,69.46Z"/>
  </g>
  <g id="heel" class="cls-10">
    <path class="cls-2" d="M1181,77c15.33,2.22,27.31-3.54,43-2,10.78,6,43.11,88.52,33,102-22.31,29.75-143.8,19.08-157-9,6-4.12,9.69-11.63,15-17,9.33-16.91,17-34.58,26.2-50.7C1150,84.91,1166.36,80.93,1181,77Z"/>
  </g>
  <g id="shadow">
    <image id="image" width="1508" height="704" xlink:href="shoe.png"/>
  </g>
</svg>
